<svg viewBox="0 0 500 500" xml:space="preserve" xmlns="http://www.w3.org/2000/svg"><path clip-rule="evenodd" d="M243.732 119.899c-26.893 26.894-20.625 61.868-29.622 95.939L63.296 63.568c-3.274-3.46-7.999-5.634-13.177-5.634-9.995 0-18.17 8.083-18.17 18.17v6.176c0 54.788 23.623 156.183 97.398 237.404L42.49 406.457c-14.086 14.072-14.086 36.971 0 51.052 14.08 14.092 36.977 14.092 50.968 0l86.582-86.675 51.791 51.79 44.698-40.612 75.506 75.497c13.983 14.092 36.883 14.092 50.962 0 14.092-14.081 14.092-36.979 0-51.052l-119.476-120.48c34.442-9.449 69.686-2.812 96.585-29.715l81.221-81.219c8.999-8.909 8.999-23.441 0-32.43-8.997-9.004-23.528-9.004-32.438 0l-71.493 71.407c-5.36 5.358-14.092 5.358-19.448 0a13.602 13.602 0 0 1 0-19.438l71.413-71.504c8.99-8.909 8.99-23.441 0-32.438-8.995-8.988-23.53-8.988-32.429 0l-71.512 71.415a13.605 13.605 0 0 1-19.441 0c-5.356-5.358-5.356-14.09 0-19.441l71.417-71.504c8.994-8.907 8.994-23.442 0-32.438-8.998-8.996-23.528-8.996-32.439 0l-81.225 81.227z" fill="#ffffff" fill-rule="evenodd" class="fill-010101"></path></svg>